<svg xmlns="http://www.w3.org/2000/svg" viewBox="0 0 184 184"><svg xmlns="http://www.w3.org/2000/svg" viewBox="0 0 184 184"><g transform="translate(-51 310)"><rect width="184" height="184" rx="5" transform="translate(51 -310)"/><path fill="#ac322b" d="M200.142-268.159h17.45c.82 0 1.72-.02 1.96 1.04.28 1.24-.32 1.75-1.53 1.95-2.78.46-3.45 2.18-3.44 4.92.1 27.63.06 55.27.07 82.9 0 3.54.04 3.59 3.47 4.63.91.27 1.53.59 1.5 1.57s-.66 1.42-1.62 1.43c-1 .01-1.99.02-2.99.02h-28.92a33.625 33.625 0 0 1-3.48-.12 1.1 1.1 0 0 1-.93-1c-.1-.71.03-1.63.66-1.65 4.82-.19 4.26-3.66 4.26-6.77v-79.93c0-4.48-.02-4.51-4.56-6.08-.96-.33-1.33-.81-1.21-1.77.1-.82.67-1.08 1.37-1.12 1-.05 1.99-.04 2.99-.04h14.96Z"/><path fill="#fcfbfc" d="M66.742-172.975c-.64-3.66-.43-5.78.56-8.04 3.39-7.72 6.55-15.54 9.8-23.32.38-.91.69-1.86 1.16-2.74a.846.846 0 0 1 1.24-.4 1.925 1.925 0 0 1 .68.68 1.618 1.618 0 0 1 .21.95c-.86 4.84 2.55 6.73 5.99 8.57a66.2 66.2 0 0 0 18.36 6.09 73.861 73.861 0 0 0 28.23.42 30.6 30.6 0 0 0 7.54-2.48 10.693 10.693 0 0 0 5.22-5.14c1.77-3.71.65-6.39-3.23-7.84a49.471 49.471 0 0 0-11.66-2.42c-7.26-.85-14.56-1.32-21.82-2.16-8.58-.99-17.12-2.32-25.04-6.06a56.566 56.566 0 0 1-5.2-2.92c-9.93-6.04-10.97-16.9-7.75-25.68 2.91-7.92 8.59-13.22 16-16.89 7.88-3.89 16.32-5.45 25.04-5.76 15.27-.53 30.08 2.25 44.75 6.12.96.25 1.96.4 2.89.73 3.14 1.14 6.13 1.46 8.85-1.04a1.439 1.439 0 0 1 2.2.11c.56.64.06 1.22-.22 1.78q-5.55 11.1-11.1 22.19c-.38.76-.71 1.59-1.71 1.48a1.632 1.632 0 0 1-1.6-1.61c.08-2.76-1.99-3.62-3.91-4.57a36.853 36.853 0 0 0-7.95-2.82c-9.57-2.24-19.21-3.85-29.08-3.67a40.693 40.693 0 0 0-12.25 1.89 13.841 13.841 0 0 0-5.2 2.87c-3.18 2.97-2.8 6.33 1.03 8.46 3.26 1.81 6.92 2.24 10.55 2.6 9.75.97 19.54 1.54 29.23 3.08 8.23 1.31 16.34 2.96 23.41 7.77 8.75 5.95 11.92 14.35 10.71 24.51-1.75 14.61-11.37 22.12-24.51 26.22-15.87 4.95-32.04 5.1-48.32 2.62-8.53-1.3-17-2.92-25.09-6.08-2.81-1.1-5.56-1.49-8.01 2.5Z"/></g></svg><style>@media (prefers-color-scheme:light){:root{filter:none}}@media (prefers-color-scheme:dark){:root{filter:none}}</style></svg>